<svg width="90" height="30" viewBox="0 0 90 30" fill="none" xmlns="http://www.w3.org/2000/svg">
<path d="M20.413 15.9509C20.3812 12.163 23.5192 10.3167 23.6653 10.2342C21.8867 7.64548 19.1298 7.29017 18.1579 7.26479C15.8394 7.02372 13.597 8.64799 12.4155 8.64799C11.2149 8.64799 9.39811 7.29017 7.4353 7.32827C4.91342 7.3663 2.55673 8.82565 1.26723 11.0844C-1.40073 15.6971 0.587554 22.4733 3.14751 26.2041C4.42427 28.0314 5.91712 30.0681 7.87362 29.9983C9.78561 29.9221 10.5034 28.78 12.8093 28.78C15.0961 28.78 15.7694 29.9983 17.7641 29.9539C19.8159 29.9221 21.1117 28.1202 22.3441 26.2802C23.8242 24.1864 24.4149 22.1244 24.4403 22.0228C24.3895 21.9911 20.4511 20.4874 20.413 15.9509ZM16.6461 4.80935C17.6751 3.52137 18.3802 1.77655 18.1833 0C16.6969 0.0634142 14.8293 1.02783 13.7621 2.28414C12.8157 3.39447 11.9644 5.20906 12.1868 6.91584C13.8511 7.03637 15.5725 6.07196 16.6461 4.80935Z" fill="black"/>
<path d="M42.2441 22.3011H40.6667L39.8012 19.5915H36.8L35.9756 22.3011H34.4395L37.4144 13.0722H39.2504L42.2441 22.3011ZM39.5427 18.4538L38.7595 16.0437C38.6771 15.7967 38.5197 15.2166 38.2949 14.3035H38.2687C38.1788 14.6964 38.0289 15.2765 37.8303 16.0437L37.0623 18.4538H39.5427ZM49.8804 18.8917C49.8804 20.0219 49.573 20.9164 48.9585 21.575C48.4075 22.1589 47.7219 22.4508 46.9051 22.4508C46.0208 22.4508 45.3878 22.1364 45.002 21.5077V24.9994H43.5218V17.8326C43.5218 17.1215 43.5033 16.3917 43.4657 15.647H44.7693L44.8521 16.7024H44.878C45.3728 15.909 46.1222 15.5085 47.1261 15.5085C47.913 15.5085 48.5687 15.8192 49.0934 16.4404C49.6178 17.0617 49.8804 17.8813 49.8804 18.8917ZM48.374 18.9478C48.374 18.3004 48.2277 17.7652 47.9356 17.3461C47.6169 16.9082 47.1863 16.6911 46.6466 16.6911C46.2834 16.6911 45.9497 16.8146 45.6536 17.0542C45.3579 17.2974 45.1628 17.6155 45.0731 18.0047C45.0319 18.1507 45.0093 18.3041 45.0056 18.4538V19.5653C45.0056 20.0481 45.1555 20.456 45.4516 20.7929C45.7473 21.126 46.1335 21.2943 46.609 21.2943C47.1673 21.2943 47.602 21.0773 47.913 20.6507C48.2164 20.2165 48.374 19.6514 48.374 18.9478ZM57.5462 18.8917C57.5462 20.0219 57.2392 20.9164 56.6243 21.575C56.0737 22.1589 55.3882 22.4508 54.5713 22.4508C53.687 22.4508 53.0536 22.1364 52.6678 21.5077V24.9994H51.1876V17.8326C51.1876 17.1215 51.1691 16.3917 51.1315 15.647H52.4355L52.5179 16.7024H52.5442C53.0386 15.909 53.788 15.5085 54.7923 15.5085C55.5792 15.5085 56.2349 15.8192 56.7592 16.4404C57.2804 17.0617 57.5462 17.8813 57.5462 18.8917ZM56.0361 18.9478C56.0361 18.3004 55.8903 17.7652 55.5978 17.3461C55.2795 16.9082 54.8484 16.6911 54.3091 16.6911C53.9456 16.6911 53.6119 16.8146 53.3121 17.0542C53.0164 17.2974 52.8213 17.6155 52.7316 18.0047C52.6864 18.1881 52.6605 18.3378 52.6605 18.4538V19.5653C52.6605 20.0481 52.8104 20.456 53.1061 20.7929C53.4022 21.126 53.788 21.2943 54.2679 21.2943C54.8258 21.2943 55.2605 21.0773 55.5716 20.6507C55.8826 20.2165 56.0361 19.6514 56.0361 18.9478ZM66.1153 19.715C66.1153 20.501 65.8418 21.1409 65.2948 21.6312C64.6953 22.1701 63.8522 22.4395 62.7768 22.4395C61.7839 22.4395 60.986 22.2487 60.3825 21.8632L60.7234 20.6319C61.3718 21.0174 62.0873 21.2083 62.8629 21.2083C63.4212 21.2083 63.8558 21.081 64.1669 20.8303C64.478 20.5795 64.6351 20.2427 64.6351 19.8236C64.6351 19.4493 64.5042 19.135 64.2493 18.8767C63.9944 18.6222 63.571 18.3827 62.9756 18.1657C61.3569 17.5631 60.5473 16.6799 60.5473 15.5235C60.5473 14.7675 60.8321 14.1463 61.4053 13.6635C61.9749 13.1807 62.732 12.9375 63.6761 12.9375C64.5155 12.9375 65.216 13.0834 65.7743 13.3753L65.4035 14.5804C64.8787 14.296 64.2905 14.1575 63.6272 14.1575C63.1065 14.1575 62.6944 14.2847 62.4019 14.5392C62.1547 14.7675 62.0311 15.0445 62.0311 15.3738C62.0311 15.7368 62.1737 16.04 62.4585 16.2757C62.7057 16.4928 63.1513 16.7323 63.7997 16.9868C64.5939 17.3086 65.1785 17.6791 65.5533 18.1096C65.9278 18.5399 66.1153 19.0751 66.1153 19.715ZM71.0236 16.7585H69.3899V19.9882C69.3899 20.8116 69.6783 21.2195 70.2556 21.2195C70.5214 21.2195 70.7388 21.197 70.9149 21.1521L70.9561 22.2749C70.664 22.3834 70.2819 22.4395 69.806 22.4395C69.2214 22.4395 68.7641 22.2599 68.4345 21.9044C68.1048 21.5488 67.94 20.95 67.94 20.1118V16.7585H66.9697V15.6507H67.94V14.4307L69.3939 13.9929V15.6507H71.0272L71.0236 16.7585ZM78.371 18.9216C78.371 19.9433 78.079 20.7854 77.4944 21.4403C76.8836 22.1177 76.0708 22.4545 75.0552 22.4545C74.0772 22.4545 73.2979 22.1289 72.717 21.4852C72.1365 20.8378 71.8481 20.0182 71.8481 19.0339C71.8481 18.001 72.1478 17.1589 72.7473 16.5003C73.3468 15.8416 74.1523 15.516 75.1675 15.516C76.1455 15.516 76.9325 15.8416 77.5243 16.4891C78.0862 17.114 78.371 17.9262 78.371 18.9216ZM76.8351 18.9553C76.8351 18.3453 76.7038 17.8214 76.4376 17.3872C76.127 16.8596 75.6846 16.5938 75.1077 16.5938C74.5155 16.5938 74.0586 16.8596 73.7512 17.3872C73.4854 17.8251 73.3541 18.3565 73.3541 18.9853C73.3541 19.5953 73.4854 20.1192 73.7512 20.5571C74.0699 21.0848 74.5195 21.3505 75.0964 21.3505C75.6624 21.3505 76.1043 21.081 76.4267 20.5459C76.7002 20.093 76.8351 19.5653 76.8351 18.9553ZM83.186 16.9494C83.0321 16.9232 82.8749 16.9082 82.7174 16.9082C82.1967 16.9082 81.7959 17.1028 81.5111 17.4958C81.2639 17.8438 81.1403 18.2817 81.1403 18.8094V22.3011H79.6601V17.7428C79.6601 17.0429 79.6488 16.3468 79.6189 15.647H80.908L80.9601 16.9194H81.0013C81.1588 16.4816 81.4024 16.1298 81.7434 15.8641C82.0504 15.632 82.4289 15.5085 82.8147 15.5085C82.9537 15.5085 83.0733 15.5198 83.186 15.5347V16.9494ZM89.8067 18.6597C89.8103 18.8842 89.7914 19.1088 89.7542 19.3296H85.3105C85.3254 19.9882 85.5428 20.4897 85.9548 20.8378C86.3293 21.1484 86.8129 21.3018 87.4087 21.3018C88.068 21.3018 88.6675 21.197 89.2072 20.9875L89.4395 22.0129C88.8097 22.2861 88.0644 22.4246 87.2063 22.4246C86.1722 22.4246 85.3626 22.1214 84.7708 21.5152C84.1826 20.9089 83.8865 20.093 83.8865 19.0713C83.8865 18.0684 84.16 17.2338 84.711 16.5677C85.2842 15.8566 86.0635 15.5011 87.0415 15.5011C88.0006 15.5011 88.7273 15.8566 89.2222 16.5677C89.608 17.1328 89.8067 17.8288 89.8067 18.6597ZM88.394 18.2779C88.4053 17.8401 88.308 17.4621 88.1056 17.1402C87.8507 16.7286 87.4536 16.5228 86.9252 16.5228C86.442 16.5228 86.0485 16.7248 85.7448 17.1253C85.4975 17.4434 85.3517 17.8288 85.3064 18.2742L88.394 18.2779Z" fill="black"/>
<path d="M36.3727 9.81282C35.9606 9.81282 35.6046 9.7941 35.3086 9.7604V5.29568C35.7245 5.23205 36.1442 5.19836 36.5638 5.20211C38.2611 5.20211 39.0442 6.03667 39.0442 7.39517C39.0405 8.96325 38.1188 9.81282 36.3727 9.81282ZM36.6237 5.77472C36.3952 5.77472 36.2004 5.78969 36.0393 5.82334V9.21402C36.1254 9.22899 36.294 9.23271 36.5301 9.23271C37.6429 9.23271 38.2761 8.60026 38.2761 7.41765C38.2723 6.35854 37.6991 5.77472 36.6237 5.77472ZM41.4797 9.84647C40.5242 9.84647 39.9022 9.13167 39.9022 8.16238C39.9022 7.1519 40.5354 6.43339 41.5321 6.43339C42.4763 6.43339 43.1096 7.1145 43.1096 8.10997C43.1096 9.13167 42.4576 9.84647 41.4797 9.84647ZM41.5059 6.9648C40.9813 6.9648 40.6441 7.45505 40.6441 8.14366C40.6441 8.8173 40.9888 9.30756 41.4984 9.30756C42.0117 9.30756 42.3527 8.78361 42.3527 8.12869C42.3564 7.46256 42.0192 6.9648 41.5059 6.9648ZM48.5649 6.50073L47.542 9.77162H46.8751L46.4517 8.35324C46.3467 8.00518 46.257 7.65341 46.1895 7.29789H46.1746C46.1221 7.65341 46.0207 8.01269 45.912 8.35324L45.4624 9.77162H44.7882L43.8251 6.50073H44.5745L44.9453 8.05384C45.0318 8.42434 45.1065 8.77239 45.1667 9.10548H45.1816C45.2341 8.82852 45.3238 8.48797 45.4515 8.06135L45.9161 6.50073H46.5079L46.9539 8.02766C47.0625 8.39815 47.1486 8.76118 47.216 9.10548H47.2346C47.2835 8.76864 47.3546 8.41312 47.456 8.02766L47.8531 6.50073H48.5649ZM52.338 9.77162H51.6113V7.89293C51.6113 7.31286 51.3899 7.02468 50.9516 7.02468C50.521 7.02468 50.2248 7.39517 50.2248 7.82554V9.77162H49.4981V7.43633C49.4981 7.14819 49.4904 6.83758 49.4718 6.50073H50.1125L50.1461 7.00596H50.1646C50.3598 6.65794 50.7569 6.43339 51.2029 6.43339C51.8884 6.43339 52.3417 6.95733 52.3417 7.81433L52.338 9.77162ZM54.3425 9.77162H53.6158V5H54.3425V9.77162ZM56.9991 9.84647C56.0437 9.84647 55.4216 9.13167 55.4216 8.16238C55.4216 7.1519 56.055 6.43339 57.0516 6.43339C57.9957 6.43339 58.6291 7.1145 58.6291 8.10997C58.6291 9.13167 57.9735 9.84647 56.9991 9.84647ZM57.0253 6.9648C56.5006 6.9648 56.1637 7.45505 56.1637 8.14366C56.1637 8.8173 56.5082 9.30756 57.0177 9.30756C57.5311 9.30756 57.8721 8.78361 57.8721 8.12869C57.8721 7.46256 57.5388 6.9648 57.0253 6.9648ZM61.4989 9.77162L61.4464 9.39362H61.4278C61.2069 9.69677 60.8809 9.84272 60.4688 9.84272C59.8802 9.84272 59.4645 9.43107 59.4645 8.88094C59.4645 8.07257 60.165 7.65716 61.379 7.65716V7.59728C61.379 7.16687 61.1507 6.94983 60.7011 6.94983C60.3787 6.94983 60.0939 7.03218 59.8467 7.1931L59.7004 6.71406C60.0042 6.52692 60.3824 6.42964 60.8247 6.42964C61.6787 6.42964 62.1134 6.87873 62.1134 7.78063V8.98572C62.1134 9.31506 62.1283 9.57326 62.1623 9.76787L61.4989 9.77162ZM61.3979 8.14366C60.5884 8.14366 60.184 8.33827 60.184 8.80233C60.184 9.14664 60.3937 9.31506 60.6821 9.31506C61.0534 9.31506 61.3979 9.03435 61.3979 8.64888V8.14366ZM65.6393 9.77162L65.6057 9.24768H65.5867C65.3771 9.6444 65.0248 9.84647 64.534 9.84647C63.7434 9.84647 63.1589 9.15414 63.1589 8.17735C63.1589 7.15565 63.766 6.43339 64.5938 6.43339C65.0325 6.43339 65.3432 6.57934 65.5156 6.87873H65.5306V5H66.2573V8.8884C66.2573 9.20277 66.265 9.50216 66.2836 9.76787H65.6393V9.77162ZM65.5342 7.84802C65.5342 7.39142 65.2308 6.99849 64.7663 6.99849C64.2266 6.99849 63.8969 7.47753 63.8969 8.14741C63.8969 8.80609 64.2379 9.25893 64.7513 9.25893C65.2082 9.25893 65.5342 8.86221 65.5342 8.39068V7.84802ZM70.8812 9.84647C69.9258 9.84647 69.3037 9.13167 69.3037 8.16238C69.3037 7.1519 69.9367 6.43339 70.9337 6.43339C71.8778 6.43339 72.5109 7.1145 72.5109 8.10997C72.5109 9.13167 71.8592 9.84647 70.8812 9.84647ZM70.9075 6.9648C70.3827 6.9648 70.0454 7.45505 70.0454 8.14366C70.0454 8.8173 70.3904 9.30756 70.8998 9.30756C71.4133 9.30756 71.7542 8.78361 71.7542 8.12869C71.7578 7.46256 71.4205 6.9648 70.9075 6.9648ZM76.4266 9.77162H75.6994V7.89293C75.6994 7.31286 75.4784 7.02468 75.0401 7.02468C74.6091 7.02468 74.3134 7.39517 74.3134 7.82554V9.77162H73.5862V7.43633C73.5862 7.14819 73.579 6.83758 73.56 6.50073H74.2007L74.2346 7.00596H74.2532C74.4483 6.65794 74.8454 6.43339 75.291 6.43339C75.9769 6.43339 76.4302 6.95733 76.4302 7.81433V9.77162H76.4266ZM81.3199 7.04711H80.518V8.63391C80.518 9.0381 80.6566 9.24021 80.9414 9.24021C81.0686 9.24021 81.1773 9.22524 81.2638 9.20652L81.2823 9.75665C81.1401 9.80906 80.9527 9.839 80.7168 9.839C80.1431 9.839 79.7985 9.52464 79.7985 8.69379V7.0434H79.319V6.49698H79.7985V5.89819L80.5144 5.68115V6.49698H81.3163L81.3199 7.04711ZM85.1754 9.77162H84.4483V7.9079C84.4483 7.32407 84.2273 7.02843 83.789 7.02843C83.4105 7.02843 83.0622 7.28292 83.0622 7.80311V9.77537H82.3351V5H83.0622V6.9648H83.0772C83.3058 6.60928 83.6391 6.43339 84.0625 6.43339C84.7557 6.43339 85.1791 6.97226 85.1791 7.82554L85.1754 9.77162ZM89.1206 8.31208H86.9364C86.9513 8.9296 87.3597 9.28137 87.9669 9.28137C88.2889 9.28137 88.5886 9.22899 88.8508 9.12792L88.9635 9.63314C88.6524 9.76787 88.2889 9.83525 87.8655 9.83525C86.8426 9.83525 86.2359 9.1878 86.2359 8.18857C86.2359 7.18559 86.8576 6.43339 87.7831 6.43339C88.6185 6.43339 89.1433 7.05087 89.1433 7.9865C89.1505 8.09129 89.1433 8.20354 89.1206 8.31208ZM88.4537 7.79189C88.4537 7.28663 88.1992 6.93111 87.7346 6.93111C87.3149 6.93111 86.9852 7.29413 86.94 7.79189H88.4537Z" fill="black"/>
</svg>
