<svg width="96" height="25" viewBox="0 0 96 25" fill="none" xmlns="http://www.w3.org/2000/svg">
<path d="M0.586609 25C0.195518 24.8047 0 24.3164 0 23.8281C0 23.7304 0 23.5351 0 23.4375C0 16.2109 0 8.98434 0 1.85543C0 1.4648 0.097759 1.17186 0.195518 0.781233C0.293333 0.585888 0.488851 0.3906 0.684425 0.195312C4.88856 4.39451 8.99494 8.59371 13.1013 12.793C8.89718 16.6992 4.7908 20.8008 0.586609 25Z" fill="black"/>
<path d="M17.2076 8.49609C16.0344 9.66799 14.7633 10.8398 13.5901 12.1094C9.67924 8.10546 5.67062 4.10155 1.75977 0.097644C1.75977 0.097644 1.75977 0 1.85752 0C6.94166 2.83201 12.0257 5.66408 17.2076 8.49609Z" fill="black"/>
<path d="M1.75977 25C5.67062 21.0937 9.67924 17.1875 13.5901 13.2812C14.6656 14.3554 15.8388 15.4297 17.1099 16.6015C12.0257 19.4336 6.94166 22.2656 1.85752 25H1.75977Z" fill="black"/>
<path d="M17.7934 16.2109C16.5224 15.0391 15.3492 13.8672 14.0781 12.6953C15.3492 11.4258 16.6202 10.1563 17.8912 8.88672C18.2823 9.08201 18.6734 9.27735 19.0644 9.57028C20.0421 10.1563 21.1177 10.6445 22.0954 11.2305C22.3887 11.3281 22.5842 11.5234 22.7797 11.8164C23.1708 12.3047 23.1708 12.793 22.7797 13.2813C22.5842 13.4765 22.3887 13.6719 22.0954 13.7695C20.7266 14.6484 19.26 15.4297 17.7934 16.2109Z" fill="black"/>
<path d="M37.7465 4.44443C37.7465 5.03703 37.5982 5.55557 37.2274 5.92594C36.7824 6.37037 36.2633 6.59261 35.5959 6.59261C34.9284 6.59261 34.4093 6.37037 33.9643 5.92594C33.5194 5.48146 33.2969 4.96297 33.2969 4.2963C33.2969 3.62964 33.5194 3.11114 33.9643 2.66667C34.4093 2.22224 34.9284 2 35.5959 2C35.8925 2 36.1892 2.07406 36.4858 2.22224C36.7824 2.37037 37.0049 2.51854 37.1532 2.74073L36.7824 3.1111C36.4858 2.74073 36.115 2.5926 35.5959 2.5926C35.1509 2.5926 34.7059 2.74073 34.4093 3.1111C34.0385 3.4074 33.8902 3.85187 33.8902 4.37037C33.8902 4.88891 34.0385 5.33334 34.4093 5.62964C34.7801 5.92594 35.1509 6.14813 35.5959 6.14813C36.115 6.14813 36.4858 6 36.8566 5.62964C37.0791 5.4074 37.2274 5.1111 37.2274 4.74073H35.5959V4.22224H37.7465C37.7465 4.22224 37.7465 4.2963 37.7465 4.44443Z" fill="black" stroke="black" stroke-width="0.2" stroke-miterlimit="10"/>
<path d="M41.1582 2.5926H39.1558V4H41.0098V4.51854H39.1558V5.92594H41.1582V6.44443H38.5625V2H41.1582V2.5926Z" fill="black" stroke="black" stroke-width="0.2" stroke-miterlimit="10"/>
<path d="M43.6062 6.44443H43.0127V2.51854H41.752V2H44.8666V2.51854H43.6062V6.44443Z" fill="black" stroke="black" stroke-width="0.2" stroke-miterlimit="10"/>
<path d="M47.0176 6.44443V2H47.6105V6.44443H47.0176Z" fill="black" stroke="black" stroke-width="0.2" stroke-miterlimit="10"/>
<path d="M50.1331 6.44443H49.5401V2.51854H48.2793V2H51.3199V2.51854H50.059V6.44443H50.1331Z" fill="black" stroke="black" stroke-width="0.2" stroke-miterlimit="10"/>
<path d="M57.1767 5.92594C56.7319 6.37037 56.2126 6.59261 55.5451 6.59261C54.8777 6.59261 54.3588 6.37037 53.9135 5.92594C53.4687 5.48146 53.2461 4.96297 53.2461 4.2963C53.2461 3.62964 53.4687 3.11114 53.9135 2.66667C54.3588 2.22224 54.8777 2 55.5451 2C56.2126 2 56.7319 2.22224 57.1767 2.66667C57.6216 3.11114 57.8442 3.62964 57.8442 4.2963C57.8442 4.88891 57.6216 5.48146 57.1767 5.92594ZM54.3588 5.55557C54.6555 5.85187 55.1003 6.07407 55.5451 6.07407C55.9904 6.07407 56.4352 5.92594 56.7319 5.55557C57.0286 5.25927 57.2508 4.81484 57.2508 4.2963C57.2508 3.77777 57.1027 3.33333 56.7319 3.03703C56.4352 2.74073 55.9904 2.51854 55.5451 2.51854C55.1003 2.51854 54.6555 2.66667 54.3588 3.03703C54.0621 3.33333 53.8395 3.77777 53.8395 4.2963C53.8395 4.74073 53.988 5.18521 54.3588 5.55557Z" fill="black" stroke="black" stroke-width="0.2" stroke-miterlimit="10"/>
<path d="M58.6602 6.44443V2H59.3276L61.4781 5.48146V4.5926V2H62.0715V6.44443H61.4781L59.179 2.81484V3.7037V6.44443H58.6602Z" fill="black" stroke="black" stroke-width="0.2" stroke-miterlimit="10"/>
<path d="M53.0977 12.9639C51.318 12.9639 49.909 14.2972 49.909 16.1491C49.909 17.9269 51.318 19.3343 53.0977 19.3343C54.8774 19.3343 56.2868 18.0009 56.2868 16.1491C56.2868 14.2972 54.8774 12.9639 53.0977 12.9639ZM53.0977 18.0009C52.1336 18.0009 51.318 17.1861 51.318 16.075C51.318 14.9639 52.1336 14.1491 53.0977 14.1491C54.0619 14.1491 54.8774 14.8898 54.8774 16.075C54.8774 17.2602 54.0619 18.0009 53.0977 18.0009ZM46.2006 12.9639C44.4208 12.9639 43.0118 14.2972 43.0118 16.1491C43.0118 17.9269 44.4208 19.3343 46.2006 19.3343C47.9807 19.3343 49.3897 18.0009 49.3897 16.1491C49.3897 14.2972 47.9807 12.9639 46.2006 12.9639ZM46.2006 18.0009C45.2369 18.0009 44.4208 17.1861 44.4208 16.075C44.4208 14.9639 45.2369 14.1491 46.2006 14.1491C47.1647 14.1491 47.9807 14.8898 47.9807 16.075C47.9807 17.2602 47.1647 18.0009 46.2006 18.0009ZM37.9689 13.9269V15.2602H41.1578C41.0836 16.001 40.787 16.5935 40.4162 16.9639C39.9712 17.4083 39.2296 17.9269 37.9689 17.9269C35.9665 17.9269 34.4833 16.3713 34.4833 14.3713C34.4833 12.3713 36.0407 10.8158 37.9689 10.8158C39.0071 10.8158 39.8229 11.2602 40.4162 11.7787L41.3803 10.8158C40.5645 10.075 39.5262 9.48242 38.043 9.48242C35.3732 9.48242 33.0742 11.7047 33.0742 14.3713C33.0742 17.038 35.3732 19.2602 38.043 19.2602C39.5262 19.2602 40.5645 18.8158 41.4544 17.8528C42.3444 16.9639 42.641 15.7046 42.641 14.7417C42.641 14.4454 42.641 14.1491 42.5668 13.9269H37.9689ZM71.6382 14.9639C71.3415 14.2232 70.5996 12.9639 68.9684 12.9639C67.3368 12.9639 66.0019 14.2232 66.0019 16.1491C66.0019 17.9269 67.3368 19.3343 69.1165 19.3343C70.5255 19.3343 71.4156 18.4454 71.7123 17.9269L70.6741 17.1861C70.3033 17.7046 69.8581 18.075 69.1165 18.075C68.375 18.075 67.9298 17.7787 67.559 17.1121L71.7863 15.3343L71.6382 14.9639ZM67.3368 16.001C67.3368 14.8158 68.301 14.1491 68.9684 14.1491C69.4873 14.1491 70.0066 14.4454 70.1548 14.8158L67.3368 16.001ZM63.851 19.038H65.26V9.77872H63.851V19.038ZM61.6264 13.6306C61.2553 13.2602 60.6623 12.8898 59.9204 12.8898C58.3633 12.8898 56.8798 14.2972 56.8798 16.075C56.8798 17.8528 58.2892 19.1861 59.9204 19.1861C60.6623 19.1861 61.2553 18.8158 61.552 18.4454H61.6264V18.8898C61.6264 20.075 60.959 20.7417 59.9204 20.7417C59.1048 20.7417 58.5114 20.1491 58.3633 19.6306L57.1765 20.1491C57.5472 20.9639 58.4373 22.0009 59.9949 22.0009C61.6264 22.0009 62.9613 21.038 62.9613 18.7417V13.1121H61.6264V13.6306ZM59.9949 18.0009C59.0307 18.0009 58.2147 17.1861 58.2147 16.075C58.2147 14.9639 59.0307 14.1491 59.9949 14.1491C60.959 14.1491 61.7005 14.9639 61.7005 16.075C61.7005 17.1861 60.959 18.0009 59.9949 18.0009ZM78.0901 9.77872H74.7528V19.038H76.1618V15.5565H78.0901C79.6472 15.5565 81.1307 14.4454 81.1307 12.6676C81.1307 10.8898 79.6472 9.77872 78.0901 9.77872ZM78.1642 14.2972H76.1618V11.1121H78.1642C79.2024 11.1121 79.7958 12.001 79.7958 12.6676C79.7217 13.4084 79.1283 14.2972 78.1642 14.2972ZM86.6929 12.9639C85.6543 12.9639 84.616 13.4084 84.2453 14.3713L85.5061 14.8898C85.8028 14.3713 86.2476 14.2232 86.767 14.2232C87.5085 14.2232 88.1759 14.6676 88.25 15.4084V15.4824C88.0278 15.3343 87.4344 15.1121 86.841 15.1121C85.5061 15.1121 84.1712 15.8528 84.1712 17.1861C84.1712 18.4454 85.2835 19.2602 86.4703 19.2602C87.4344 19.2602 87.8792 18.8158 88.25 18.3713H88.3241V19.1121H89.659V15.5565C89.5108 13.8528 88.25 12.9639 86.6929 12.9639ZM86.5443 18.0009C86.0995 18.0009 85.4321 17.7787 85.4321 17.1861C85.4321 16.4454 86.2476 16.2232 86.9151 16.2232C87.5085 16.2232 87.8052 16.3713 88.1759 16.5195C88.0278 17.4084 87.2859 18.0009 86.5443 18.0009ZM94.3311 13.1121L92.774 17.1121H92.7L91.0684 13.1121H89.5849L92.0325 18.7417L90.6231 21.8528H92.0325L95.8146 13.1121H94.3311ZM81.8722 19.038H83.2811V9.77872H81.8722V19.038Z" fill="black"/>
</svg>
